<?xml version="1.0" encoding="UTF-8" standalone="no"?> <svg xmlns:inkscape="http://www.inkscape.org/namespaces/inkscape" xmlns:sodipodi="http://sodipodi.sourceforge.net/DTD/sodipodi-0.dtd" xmlns="http://www.w3.org/2000/svg" xmlns:svg="http://www.w3.org/2000/svg" id="Ebene_1" width="215.37" height="37.5" viewBox="0 0 215.37 37.5" version="1.1"><defs id="defs1"><style id="style1">.cls-1{fill:#fff;}</style></defs><path class="cls-1" d="m46.57,23.68v-9.74c0-2.62,4.29-5.41,6.32-5.41,1.47,0,3.5,1.03,4.73,1.75.28.2.4.52.24.88l-.32.64c-.16.32-.56.44-.91.24-1.03-.56-2.66-1.39-3.7-1.39-1.35,0-4.13,1.87-4.13,3.58v9.18c0,1.71,2.78,3.54,4.09,3.54,1.07,0,2.78-.91,3.7-1.43.4-.2.79-.16.95.24l.32.68c.12.36.04.64-.24.79-1.47.88-3.26,1.83-4.73,1.83-2.07,0-6.32-2.82-6.32-5.37m17.96-9.5c0-1.59,2.7-3.54,4.13-3.54s4.13,1.91,4.13,3.5v3.46h-8.27v-3.42m10.45-.28c0-2.54-4.17-5.37-6.32-5.37s-6.36,2.86-6.36,5.41v9.7c0,2.62,4.13,5.41,6.36,5.41,1.63,0,3.97-1.31,5.41-2.27.32-.2.36-.52.24-.79l-.4-.68c-.16-.36-.56-.4-.91-.2-1.15.76-3.18,1.83-4.33,1.83-1.43,0-4.13-1.91-4.13-3.58v-3.89h9.38c.48,0,1.07-.68,1.07-1.07v-4.49Zm7.83-12.65c0-.32-.24-.56-.56-.56h-1.11c-.32,0-.56.24-.56.56v26.92c0,.32.24.56.56.56h1.11c.32,0,.56-.24.56-.56V1.25Zm8.78,0c0-.32-.24-.56-.56-.56h-1.11c-.32,0-.56.24-.56.56v26.92c0,.32.24.56.56.56h1.11c.32,0,.56-.24.56-.56V1.25Zm8.58,8.16c0-.32-.24-.56-.56-.56h-1.11c-.32,0-.56.24-.56.56v14.23c0,2.58,4.05,5.41,6.28,5.41s6.32-2.78,6.32-5.41v-14.23c0-.32-.24-.56-.56-.56h-1.11c-.32,0-.56.24-.56.56v13.95c0,1.75-2.78,3.58-4.09,3.58s-4.05-1.83-4.05-3.58v-13.95Zm22.58,1.23c1.11,0,3.78,1.83,3.78,3.42v14.11c0,.32.24.56.56.56h1.11c.32,0,.56-.24.56-.56v-14.15c0-1.59,2.62-3.38,3.78-3.38s3.81,1.79,3.81,3.38v14.15c0,.32.24.56.56.56h1.11c.36,0,.56-.24.56-.56v-14.43c0-2.38-3.97-5.21-6-5.21-1.55,0-3.74,1.55-4.93,3.06-1.19-1.47-3.3-3.06-4.93-3.06-1.95,0-6,2.82-6,5.21v14.43c0,.36.24.56.56.56h1.11c.32,0,.56-.24.56-.56v-14.11c0-1.63,2.62-3.42,3.81-3.42m23.61,11.17c0-1.35,1.99-2.78,3.34-2.78h4.89v4.53c0,1.39-2.7,3.38-4.09,3.38s-4.13-1.95-4.13-3.38v-1.75Zm-2.19,1.99c0,2.42,4.05,5.25,6.32,5.25s6.32-2.86,6.32-5.25v-9.94c0-2.42-4.25-5.33-6.32-5.33-1.27,0-3.5,1.03-5.05,1.87-.36.2-.52.56-.36.91l.28.68c.2.36.56.44.91.24,1.47-.75,3.3-1.55,4.21-1.55,1.35,0,4.09,1.95,4.09,3.42v3.1h-5.25c-2.03,0-5.17,2.19-5.17,4.29v2.31Zm19.83-12.96v14.15c0,1.99,3.06,4.05,4.57,4.05.68,0,1.75-.32,2.34-.52.36-.16.48-.4.4-.75l-.16-.8c-.08-.36-.32-.52-.72-.44-.44.16-1.23.4-1.75.4-.68,0-2.46-1.15-2.46-2.27v-13.83h4.25c.36,0,.56-.2.56-.56v-.87c0-.32-.2-.56-.56-.56h-4.25v-4.33c0-.32-.24-.56-.56-.56h-1.11c-.32,0-.56.2-.56.56v4.33h-2.82c-.32,0-.56.24-.56.56v.87c0,.36.24.56.56.56h2.82Zm13.87-1.43c0-.32-.24-.56-.56-.56h-1.11c-.32,0-.56.24-.56.56v18.76c0,.32.24.56.56.56h1.11c.32,0,.56-.24.56-.56V9.41Zm-1.11-8.92c-.6,0-1.67,1.03-1.67,1.59,0,.6,1.07,1.59,1.67,1.59.64,0,1.67-.99,1.67-1.59,0-.56-1.03-1.59-1.67-1.59m17.77,22.91c0,1.67-2.74,3.54-4.13,3.54-1.47,0-4.13-1.87-4.13-3.54v-9.22c0-1.67,2.7-3.54,4.13-3.54s4.13,1.87,4.13,3.54v9.22Zm2.23-9.5c0-2.58-4.17-5.37-6.36-5.37s-6.36,2.82-6.36,5.37v9.78c0,2.5,4.17,5.36,6.36,5.36s6.36-2.86,6.36-5.36v-9.78m16.38,14.27c0,.32.24.56.56.56h1.11c.36,0,.56-.24.56-.56v-14.23c0-2.58-4.21-5.41-6.32-5.41s-6.32,2.82-6.32,5.37v14.27c0,.32.24.56.56.56h1.11c.32,0,.56-.24.56-.56v-13.95c0-1.75,2.78-3.58,4.09-3.58s4.09,1.83,4.09,3.58v13.95ZM30.81,8.96c-.16,0-.29.07-.36.2l-.73,1.26c-.1.18-.1.42,0,.59.03.06,3.53,6.11,4.32,7.49.1.18.1.39,0,.56l-5.64,9.76-.08.13-.08-.13-4.26-7.39c-.07-.13-.2-.23-.35-.27-.05,0-.1-.02-.16-.02-.11,0-.21.02-.29.07l-.88.51c-.13.07-.23.2-.27.35-.04.15-.02.3.06.44l4.21,7.31.08.13h-11.22c-.22,0-.4-.11-.49-.29l-4.31-7.47c-.11-.18-.31-.29-.51-.29h-1.47c-.14,0-.28.08-.35.21-.07.12-.07.28,0,.4l4.93,8.54c.38.66,1.1,1.07,1.87,1.07h12.92c.77,0,1.48-.41,1.87-1.07l6.47-11.19c.38-.67.37-1.49-.01-2.16l-4.93-8.54c-.07-.13-.2-.21-.35-.21M11.95,0c-.95,0-1.83.51-2.31,1.32L.36,17.43c-.47.82-.47,1.83,0,2.64l9.29,16.11c.47.82,1.36,1.32,2.31,1.32h18.59c.94,0,1.82-.51,2.29-1.33l5.35-9.33c.1-.17.1-.39,0-.58l-.71-1.24c-.08-.13-.2-.21-.34-.21-.14,0-.28.08-.35.21l-5.78,10.08c-.1.18-.28.28-.49.28H11.96c-.2,0-.39-.11-.49-.28L2.2,19.03c-.09-.18-.09-.38,0-.56L11.47,2.4c.1-.17.29-.28.49-.28h18.55c.21,0,.39.1.49.28l5.85,10.12c.07.12.19.19.34.19s.27-.07.34-.19l.72-1.25c.11-.17.11-.4,0-.57l-5.42-9.35c-.47-.82-1.35-1.33-2.29-1.33H11.95Zm15.21,7.56h-12.02c-.21.01-.39.12-.49.29l-5.95,10.29-.08.13h12.03c.2,0,.39-.11.49-.28l5.94-10.3.08-.13Zm2.59-.76c.11.19.11.4,0,.59l-6.73,11.67c-.49.83-1.39,1.35-2.34,1.35H7.16c-.21,0-.41-.11-.51-.29l-.6-1.06c-.11-.17-.11-.4,0-.59l6.74-11.68c.49-.83,1.38-1.35,2.33-1.35h13.5c.22,0,.42.11.51.29l.61,1.07" id="path1" style="fill:#000000"></path></svg> 