<svg xmlns="http://www.w3.org/2000/svg" viewBox="0 0 139.6 26.9">
	<path d="M9,23.2c-0.9,0-1.4-0.4-1.1-1.3l5.8-18.2c1.1-0.1,1.8-0.1,2.8-0.1c4,0,6.7,0.8,6.7,4.1c0,3.2-2.5,10.5-5,12.9C16.1,22.6,13.5,23.2,9,23.2 M122.2,23.7c-2.8,0-4.4-1.1-4.4-4.1c0-3.7,2.5-11.3,5.4-14.2c1.5-1.5,3.3-2.2,5.6-2.2c2.8,0,4.2,1.2,4.2,3.9c0,3.6-2.8,12.3-5.9,14.9C125.8,23.1,124.2,23.7,122.2,23.7 M86.7,0.5h-4.5l-5.7,18.1L69.7,0.5h-8.5l1.2,2.6L55,26.4h4.5l6.1-19l7.2,19h5.5L86.7,0.5z M57.3,0.5H36.4l1.2,2.6l-7.4,23.3h19.7l1-3.2H39.2c-0.8,0-1.5-0.4-1.2-1.3l2.4-7.3h8.7l1-3.2h-8.7l2.4-7.6h12.5L57.3,0.5z M6.2,0.5l1.2,2.6L0,26.4h8.8c5,0,9.5-0.8,13.2-3.4c4.5-3.1,7.5-9.9,7.5-15.1c0-5.8-4.9-7.4-12-7.4C17.5,0.5,6.2,0.5,6.2,0.5z M129.9,0c-4.7,0-8.2,1.2-10.9,3.2c-4.2,3.1-7.6,11.1-7.6,16.4s3.8,7.3,9.9,7.3c4.2,0,7.6-1,10.2-2.8c4.7-3.2,8.1-11.3,8.1-16.7C139.5,2,135.9,0,129.9,0 M102.9,0c-3.6,0-7.1,0.8-9.6,2.4c-2.1,1.4-3.4,3.4-3.4,6.1c0,6.1,10.2,7.3,10.2,10.9c0,2.9-2.9,4.4-6.5,4.4c-3.7,0-6.8-2.2-7.7-2.8l-1.5,4.7c1.7,0.5,4.9,1.2,8.9,1.2c6.9,0,13.6-2.8,13.6-9.1c0-6.2-10.1-7.6-10.1-11.1c0-2.5,2.5-3.4,5.4-3.4c3.3,0,5.4,1.2,6.8,2.1l1.4-4.4C109,0.5,105.9,0,102.9,0   " fill="#dc0032"/>
</svg>