<?xml version="1.0" encoding="UTF-8" standalone="no"?>
<!-- by TradingView -->

<svg
   width="1024"
   height="512"
   viewBox="0 0 1024 512"
   version="1.1"
   id="svg5"
   sodipodi:docname="kengic-logo.svg"
   inkscape:version="1.4.3 (0d15f75042, 2025-12-25)"
   xmlns:inkscape="http://www.inkscape.org/namespaces/inkscape"
   xmlns:sodipodi="http://sodipodi.sourceforge.net/DTD/sodipodi-0.dtd"
   xmlns="http://www.w3.org/2000/svg"
   xmlns:svg="http://www.w3.org/2000/svg">
  <defs
     id="defs5" />
  <sodipodi:namedview
     id="namedview5"
     pagecolor="#ffffff"
     bordercolor="#000000"
     borderopacity="0.25"
     inkscape:showpageshadow="2"
     inkscape:pageopacity="0.0"
     inkscape:pagecheckerboard="true"
     inkscape:deskcolor="#d1d1d1"
     inkscape:zoom="0.88839287"
     inkscape:cx="521.72863"
     inkscape:cy="305.04522"
     inkscape:window-width="1920"
     inkscape:window-height="999"
     inkscape:window-x="0"
     inkscape:window-y="0"
     inkscape:window-maximized="1"
     inkscape:current-layer="svg5" />
  <g
     id="g1"
     transform="matrix(20.921462,0,0,20.921462,-73.789321,-308.92783)">
    <path
       d="m 35.7,23 c 1.04,0 2,0.47 2.65,1.3 v 0.05 c 0,0.03 -0.02,0.04 -0.05,0.02 a 2.6,2.6 0 0 0 -2.77,-0.5 3.32,3.32 0 0 0 -2.16,2.67 c -0.16,0.86 0.23,1.84 0.93,2.35 0.34,0.24 0.74,0.4 1.19,0.48 0.17,0.02 0.18,0.09 0.03,0.18 a 3.5,3.5 0 0 1 -2.97,0.52 C 32.25,29.99 32,29.73 31.85,29.46 a 4.23,4.23 0 0 1 0.58,-4.84 C 33.24,23.66 34.43,23 35.7,23 Z"
       fill="#ea6102"
       id="path2" />
    <path
       d="m 35.6,24.24 c 1.34,-0.37 2.38,-0.05 3.14,0.96 0.08,0.1 0.13,0.23 0.16,0.36 0.01,0.05 0,0.09 -0.06,0.1 -0.64,0.22 -1.39,0.22 -1.77,-0.46 a 1.7,1.7 0 0 0 -0.76,-0.7 c -0.2,-0.11 -0.46,-0.1 -0.69,-0.12 -0.28,-0.02 -0.28,-0.07 -0.01,-0.14 z"
       fill="#ea6102"
       id="path3" />
    <path
       d="m 7.66,27.3 c 0.04,0.03 0.08,0.05 0.13,0.06 0.51,0.1 0.98,-0.02 1.4,-0.38 0.69,-0.6 1.35,-1.14 2,-1.63 0.56,-0.44 1.48,-0.33 2.14,-0.28 0.02,0 0.04,0 0.06,0.02 l 0.04,0.05 a 0.14,0.14 0 0 1 0,0.14 c -0.1,0.15 -0.23,0.3 -0.38,0.42 l -2.06,1.68 c -0.18,0.15 -0.47,0.4 -0.33,0.68 l 1.06,2.21 c 0.16,0.35 0.13,0.72 -0.33,0.71 -0.62,0 -1.25,0.2 -1.6,-0.54 C 9.49,29.86 9.21,29.28 8.94,28.72 8.69,28.2 8.18,28.23 7.71,28.26 7.35,28.29 7.22,28.46 7.11,28.84 6.98,29.28 6.85,29.82 6.71,30.27 6.55,30.84 6.16,31 5.62,31 H 4.25 C 4.15,31 4.09,30.9 4.05,30.8 A 0.92,0.92 0 0 1 4.04,30.22 C 4.48,28.72 4.91,27.17 5.33,25.77 5.47,25.29 5.79,25.02 6.3,25 h 1.33 c 0.38,0.04 0.5,0.3 0.4,0.72 a 49.9,49.9 0 0 1 -0.41,1.5 c 0,0.03 0.02,0.06 0.04,0.08 z m 8.75,-0.06 c -0.04,0.13 0,0.2 0.14,0.2 h 3.55 c 0.33,0 0.48,0.17 0.46,0.52 0,0.03 0,0.06 -0.02,0.1 -0.16,0.33 -0.4,0.5 -0.73,0.5 a 862.25,862.25 0 0 1 -3.77,0.01 0.06,0.06 0 0 0 -0.02,0.03 l -0.29,1.05 a 0.27,0.27 0 0 0 0.02,0.2 l 0.07,0.07 c 0.03,0.02 0.06,0.04 0.09,0.04 0.12,0.03 0.25,0.04 0.39,0.04 h 4.04 c 0.33,0 0.47,0.1 0.4,0.44 l -0.01,0.07 C 20.6,30.84 20.37,31 20.05,31 h -6.8 a 0.41,0.41 0 0 1 -0.2,-0.05 0.45,0.45 0 0 1 -0.16,-0.14 0.5,0.5 0 0 1 -0.07,-0.42 l 1.35,-4.68 c 0.14,-0.47 0.45,-0.7 0.94,-0.7 h 6.68 c 0.33,0 0.45,0.16 0.38,0.5 -0.04,0.18 -0.14,0.26 -0.35,0.4 C 21.73,25.97 21.63,26 21.52,26 H 17.1 a 0.4,0.4 0 0 0 -0.25,0.1 0.46,0.46 0 0 0 -0.15,0.22 z m 8.94,0.25 c -0.11,0.06 -0.2,0.18 -0.25,0.36 l -0.73,2.53 c -0.13,0.44 -0.52,0.6 -0.96,0.62 h -1.3 c -0.47,-0.02 -0.48,-0.46 -0.37,-0.82 l 1.3,-4.47 c 0.13,-0.45 0.5,-0.72 0.93,-0.7 L 25.2,25 c 0.28,0 0.5,0.17 0.63,0.48 a 256.75,256.75 0 0 0 1.36,3 l 0.05,0.03 a 0.13,0.13 0 0 0 0.12,-0.02 c 0.1,-0.07 0.15,-0.15 0.18,-0.25 l 0.75,-2.55 A 0.94,0.94 0 0 1 29.22,25 h 1.24 c 0.47,0 0.64,0.26 0.5,0.74 l -1.34,4.63 A 0.9,0.9 0 0 1 28.78,31 h -1.34 c -0.27,-0.01 -0.45,-0.22 -0.56,-0.47 l -1.34,-2.97 c -0.04,-0.1 -0.1,-0.12 -0.19,-0.07 z M 39.4,31 c -0.29,0 -0.43,-0.35 -0.36,-0.62 L 40.39,25.7 C 40.52,25.27 40.85,25 41.28,25 h 1.45 c 0.43,0.01 0.41,0.52 0.32,0.84 l -1.3,4.44 c -0.13,0.46 -0.42,0.71 -0.86,0.72 z m 6.75,-1.03 c 0.03,0.02 0.06,0.03 0.1,0.03 h 4.45 c 0.27,0 0.42,0.06 0.43,0.35 0,0.04 0,0.09 -0.02,0.13 C 51.01,30.83 50.78,31 50.44,31 H 43.67 C 43.17,31 43,30.74 43.14,30.23 l 1.33,-4.55 c 0.21,-0.74 0.76,-0.67 1.48,-0.68 h 5.65 c 0.32,0 0.44,0.18 0.39,0.5 -0.01,0.05 -0.02,0.05 -0.04,0.09 C 51.8,25.89 51.59,26 51.26,26 h -3.82 c -0.1,0 -0.21,0.04 -0.3,0.1 a 0.54,0.54 0 0 0 -0.18,0.28 c -0.28,1 -0.63,2.2 -0.94,3.23 -0.05,0.16 0,0.28 0.13,0.36 z"
       fill="#03489d"
       id="path4" />
    <path
       d="m 33.36,30.53 c 0.86,0.1 1.7,-0.17 2.55,-0.8 0.52,-0.38 0.85,-1.13 0.49,-1.76 -0.27,-0.46 -0.8,-0.43 -1.24,-0.44 -0.12,0 -0.17,-0.07 -0.16,-0.19 0,-0.18 0.04,-0.35 0.1,-0.52 a 0.4,0.4 0 0 1 0.13,-0.19 0.36,0.36 0 0 1 0.21,-0.07 c 0.9,-0.03 1.8,-0.04 2.73,-0.02 0.42,0 0.78,0 0.77,0.56 0,0.1 -0.02,0.21 -0.05,0.31 -0.34,1.21 -0.63,2.19 -0.88,2.93 -0.15,0.45 -0.44,0.66 -0.9,0.66 h -2.26 c -0.68,0 -1.27,-0.1 -1.87,-0.42 -0.2,-0.1 -0.19,-0.13 0.02,-0.1 z"
       fill="#ea6102"
       id="path5" />
  </g>
</svg>
