<svg id="图层_1" data-name="图层 1" xmlns="http://www.w3.org/2000/svg" viewBox="0 0 156 55"><defs><style>.cls-1{fill:#040000;}.cls-2{fill:#f9be00;}</style></defs><path class="cls-1" d="M22.48,27.48V20.32L14.3,16.75v11a4.91,4.91,0,0,0,4.89,4.68l17.51,0,2.11-5ZM19,22.67h0"/><path class="cls-1" d="M48.61,23.3v9.13H40.44V21h5.83a2.34,2.34,0,0,1,2.34,2.34"/><path class="cls-1" d="M83.84,21H78v11.5h8.17V23.28A2.33,2.33,0,0,0,83.84,21"/><path class="cls-1" d="M114,21H92.72a4.94,4.94,0,0,0-4.86,4.49l0,2.34a4.94,4.94,0,0,0,4.82,4.66h11l2.16-5v5H114ZM96,25.86h9.82V27.5H96Z"/><path class="cls-1" d="M136.75,20.93H120.56a5,5,0,0,0-5,5V27.5c0,2.55,1.94,5,4.43,5h16.78a5,5,0,0,0,4.87-5h0V25.89a5,5,0,0,0-4.95-5m-13,5h9.75V27.5h-9.75Z"/><path class="cls-1" d="M75,22.33A4.67,4.67,0,0,0,71.84,21v0H60.58l-2.1,4.93h9.74V27.5H58.48V25.86h0V20.93h0V17.66H50.19V32.45l.05,0v0H71.48A4.87,4.87,0,0,0,75,31a5,5,0,0,0,1.42-3.25h0V25.71A4.74,4.74,0,0,0,75,22.33"/><path class="cls-2" d="M86.07,34.53v4.09a6.23,6.23,0,0,1-3.64,5.79L67.74,51.47a10.06,10.06,0,0,1-8.87,0l-14.7-7.06a6.45,6.45,0,0,1-3.63-5.79V34.53h8v2.31a1.47,1.47,0,0,0,.83,1.33l12.91,6.3a2.48,2.48,0,0,0,2.13,0l12.82-6.25a1.68,1.68,0,0,0,.93-1.49v-2.2Z"/><path class="cls-2" d="M86.07,11.19v7.23H78.14V12.66A1.39,1.39,0,0,0,77,11.3l-.8-.13a93.59,93.59,0,0,0-25.68,0l-.88.15a1.28,1.28,0,0,0-1.1,1.26v5.84H40.55V11.19A7.48,7.48,0,0,1,47,3.8l2.42-.34a101.26,101.26,0,0,1,27.82,0l2.42.34a7.39,7.39,0,0,1,6.43,7.39"/><path class="cls-1" d="M88.62,35H92a2.91,2.91,0,0,1,2.15.76,2.28,2.28,0,0,1,.64,1.69v0a2.38,2.38,0,0,1-1.4,2.17l1.86,2.76h-1.9l-1.64-2.48H90.2l0,2.48H88.62Zm3.27,3.35c.89,0,1.25-.56,1.25-1v0c0-.51-.49-.89-1.28-.89H90.24v1.88Z"/><path class="cls-1" d="M95.14,38.74v0a3.93,3.93,0,0,1,7.86,0v0a3.82,3.82,0,0,1-3.94,3.83,3.79,3.79,0,0,1-3.92-3.81m6.16,0v0a2.25,2.25,0,0,0-2.24-2.32,2.21,2.21,0,0,0-2.22,2.3v0a2.25,2.25,0,0,0,2.24,2.33,2.22,2.22,0,0,0,2.22-2.31"/><path class="cls-1" d="M110.16,38.74v0a3.94,3.94,0,0,1,7.87,0v0a3.94,3.94,0,0,1-7.87,0m6.16,0v0a2.25,2.25,0,0,0-2.24-2.32,2.21,2.21,0,0,0-2.22,2.3v0a2.25,2.25,0,0,0,2.25,2.33,2.21,2.21,0,0,0,2.21-2.31"/><polygon class="cls-1" points="120.09 36.52 117.83 36.52 117.83 35.02 123.97 35.02 123.97 36.52 121.71 36.52 121.71 42.42 120.09 42.42 120.09 36.52"/><rect class="cls-1" x="124.49" y="35.02" width="1.63" height="7.4"/><path class="cls-1" d="M134.36,41.34,135,40a5.77,5.77,0,0,0,2.89,1.06c1,0,1.3-.41,1.3-.84v.12c0-.41-.3-.75-1.77-.94-1.76-.23-2.71-1.14-2.73-2.26v0c0-1.34,1.2-2.29,2.88-2.29a5.14,5.14,0,0,1,3.06,1L140,37.07a4.5,4.5,0,0,0-2.42-.71c-.7,0-1.06.28-1.06.64v0c0,.49.35.67,1.78,1,1.66.37,2.61,1,2.61,2.22v0c0,1.47-1.25,2.3-3,2.3a5.57,5.57,0,0,1-3.49-1.19"/><path class="cls-1" d="M107.32,35.06h-3.87v7.36h3.93a2.28,2.28,0,0,0,2.34-2.2,1.61,1.61,0,0,0-.68-1.48,2.12,2.12,0,0,0,.62-1.48,2.28,2.28,0,0,0-2.34-2.2m.06,5.87H105V39.5h2.36a.72.72,0,1,1,0,1.43m-.06-3H105V36.55h2.3a.72.72,0,1,1,0,1.43"/><path class="cls-1" d="M132.75,39.55a2.17,2.17,0,0,1-2.08,1.5,2.25,2.25,0,0,1-2.24-2.33v0a2.2,2.2,0,0,1,2.21-2.3,2.17,2.17,0,0,1,2,1.29h1.8a4,4,0,0,0-7.73,1v0a3.79,3.79,0,0,0,3.92,3.81,3.84,3.84,0,0,0,3.86-3Z"/></svg>