<?xml version="1.0" encoding="utf-8"?>
<!-- Generator: Adobe Illustrator 26.5.0, SVG Export Plug-In . SVG Version: 6.00 Build 0)  -->
<svg version="1.1" id="Livello_1" xmlns="http://www.w3.org/2000/svg" xmlns:xlink="http://www.w3.org/1999/xlink" x="0px" y="0px"
	 viewBox="0 0 400.6 270.5" style="enable-background:new 0 0 400.6 270.5;" xml:space="preserve">
<style type="text/css">
	.st0{fill:#F6A200;}
	.st1{fill:#3C3C3B;}
</style>
<path class="st0" d="M154,10.2C153.9,4.6,149.3,0,143.6,0c0,0,0,0,0,0l0,0h-51l0,0c-5.7,0-10.3,4.7-10.3,10.4c0,0.1,0,0.2,0,0.3
	c0,3.4,0,22.9,0,25.2c0,0.1,0,0.2,0,0.3c0,5.6,4.5,10.2,10.1,10.4l0,0h51.4c0,0,0,0,0.1,0c5.6-0.1,10-4.6,10.2-10.1l0,0L154,10.2
	L154,10.2z"/>
<path class="st1" d="M66.5,139.6L66.5,139.6L66.5,139.6c-0.1,0-0.1,0-0.1,0c0,0,0,0-0.1,0H10.5c0,0-0.1,0-0.1,0c0,0-0.1,0-0.1,0h0
	l0,0C4.6,139.6,0,144.3,0,150c0,0.1,0,0.3,0,0.4l0,0v117.8l0,0c0.1,1.2,1,2.1,2.2,2.2l0,0h0.1c0,0,0,0,0,0c0,0,0,0,0,0h11.8
	c0,0,0,0,0,0c0,0,0,0,0,0h0.1l0,0c1.3-0.1,2.3-1.1,2.3-2.4l0,0V158.1c0,0,0-0.1,0-0.1c0,0,0-0.1,0-0.1c0-1.4,1.1-2.4,2.5-2.4
	c0,0,0.1,0,0.1,0c0,0,0.1,0,0.1,0h7.9c0,0,0.1,0,0.1,0c0,0,0.1,0,0.1,0c1.4,0,2.5,1.1,2.5,2.4c0,0,0,0.1,0,0.1c0,0,0,0.1,0,0.1
	v109.8c0,0,0,0,0,0.1c0,0,0,0,0,0.1v0.1l0,0c0.1,1.2,1,2.2,2.2,2.2l0,0h0.1c0,0,0,0,0.1,0c0,0,0,0,0.1,0h12l0,0
	c1.2-0.1,2.1-1,2.2-2.2l0,0V268c0,0,0,0,0,0c0,0,0,0,0,0V158.1c0,0,0,0,0-0.1c0,0,0-0.1,0-0.1c0-1.4,1.1-2.4,2.5-2.4
	c0,0,0.1,0,0.1,0c0,0,0.1,0,0.1,0h7.8c0,0,0.1,0,0.1,0c0,0,0.1,0,0.1,0c1.4,0,2.5,1.1,2.5,2.4c0,0,0,0.1,0,0.1c0,0,0,0.1,0,0.1v110
	c0,1.3,1,2.3,2.3,2.3h12.2c1.3,0,2.3-1,2.3-2.3V150.4l0,0c0-0.1,0-0.3,0-0.4C76.8,144.3,72.2,139.7,66.5,139.6 M133.9,139.6h-37
	c-4.3,0-10.3,3.8-10.3,10.6v109.6c0,6.9,6,10.6,10.3,10.6h37c4.3,0,10.3-3.8,10.3-10.6V150.2C144.2,143.4,138.2,139.6,133.9,139.6
	 M127.4,253.6c0,1.5-1.2,2.7-2.7,2.7h-18.7c-1.5,0-2.7-1.2-2.7-2.7v-95.4c0-1.5,1.2-2.7,2.7-2.7h18.7c1.5,0,2.7,1.2,2.7,2.7V253.6z
	 M184.4,139.6c-0.4,0-0.8,0-1.2,0.1l-0.1-0.1h-26.7c-1.3,0-2.3,1-2.3,2.3v126.3c0,1.3,1,2.3,2.3,2.3h27.3l0,0c0.2,0,0.4,0,0.5,0
	c12,0,21.9-9.2,23-21l0.1-0.1v-87.8l0,0C206.8,149.3,196.7,139.6,184.4,139.6 M190.7,245.3c0,6-3.9,11-11.6,11h-5.4
	c-1.5,0-2.7-1.2-2.7-2.7v-95.4c0-1.5,1.2-2.7,2.7-2.7h6.1c6.5,0,11,4.3,11,10.6V245.3z M270,139.6h-12.2c-1.3,0-2.3,1-2.3,2.3v111.7
	c0,1.5-1.2,2.7-2.7,2.7H236c-1.5,0-2.7-1.2-2.7-2.7V141.9c0-1.3-1-2.3-2.3-2.3h-12.2c-1.3,0-2.3,1-2.3,2.3v117.8
	c0,6.9,4.3,10.8,10.3,10.8H262c6.2,0,10.3-4.5,10.3-10.8V141.9C272.3,140.6,271.2,139.6,270,139.6 M335.3,256.2H301
	c-1.5,0-2.6-1.2-2.6-2.7V141.9c0-1.3-1-2.3-2.3-2.3h-12.2c-1.3,0-2.3,1-2.3,2.3v118.4l0,0c0.1,5.3,4.1,9.5,9.2,10.1l0.1,0.1
	c-0.1,0,44.4,0,44.4,0c1.3,0,2.3-1,2.3-2.3v-9.7C337.5,257.2,336.5,256.2,335.3,256.2 M390.1,139.6L390.1,139.6L390.1,139.6
	c-0.1,0-0.1,0-0.1,0c0,0,0,0-0.1,0h-34.8c0,0,0,0-0.1,0c0,0,0,0-0.1,0h0l0,0c-5.7,0.1-10.3,4.7-10.3,10.4c0,0.1,0,0.3,0,0.4l0,0
	v117.8c0,1.3,1,2.3,2.3,2.3h12.2c1.3,0,2.3-1,2.3-2.3v-43.7h0c0-1.3,1.1-2.4,2.4-2.4c0,0,0.1,0,0.1,0h17c0,0,0.1,0,0.1,0
	c1.4,0,2.4,1.1,2.5,2.4l0,0v43.7c0,1.3,1,2.3,2.3,2.3h12.2c1.3,0,2.3-1,2.3-2.3V150.4l0,0c0-0.1,0-0.3,0-0.4
	C400.4,144.3,395.8,139.7,390.1,139.6 M383.6,203L383.6,203c0,1.3-1.1,2.4-2.4,2.4l0,0h-17.3l0,0c-1.3,0-2.3-1.1-2.4-2.4l0,0v-44.9
	c0,0,0-0.1,0-0.1c0,0,0-0.1,0-0.1c0-1.4,1.1-2.4,2.4-2.4c0,0,0,0,0,0c0.1,0,0.1,0,0.2,0H381c0.1,0,0.1,0,0.2,0c0,0,0,0,0,0
	c1.4,0,2.5,1.1,2.5,2.4c0,0,0,0,0,0.1c0,0,0,0.1,0,0.1V203z M0,118.4c0,5.6,4.5,10.2,10.1,10.4l0,0h51.4c0,0,0,0,0.1,0
	c5.5-0.1,10-4.6,10.2-10.1l0,0V92.3l0,0c-0.1-5.6-4.7-10.2-10.4-10.2c0,0,0,0,0,0l0,0h-51l0,0C4.6,82.2,0,86.8,0,92.5
	c0,0.1,0,0.2,0,0.3c0,3.4,0,22.9,0,25.2C0,118.2,0,118.3,0,118.4 M143.6,82.1C143.6,82.1,143.6,82.1,143.6,82.1L143.6,82.1h-51l0,0
	c-5.7,0-10.3,4.7-10.3,10.4c0,0.1,0,0.2,0,0.3c0,3.4,0,22.9,0,25.2c0,0.1,0,0.2,0,0.3c0,5.6,4.5,10.2,10.1,10.4l0,0h51.4
	c0,0,0,0,0.1,0c5.6-0.1,10-4.6,10.2-10.1l0,0V92.3l0,0C153.9,86.7,149.3,82.1,143.6,82.1 M164.5,118.4c0,5.6,4.5,10.2,10.1,10.4l0,0
	H226c0,0,0,0,0.1,0c5.5-0.1,10-4.6,10.2-10.1l0,0V92.3l0,0c-0.1-5.6-4.7-10.2-10.4-10.2c0,0,0,0,0,0l0,0h-51l0,0
	c-5.7,0-10.3,4.7-10.3,10.4c0,0.1,0,0.2,0,0.3c0,3.4,0,22.9,0,25.2C164.5,118.2,164.5,118.3,164.5,118.4 M246.7,118.4
	c0,5.6,4.5,10.2,10.1,10.4l0,0h51.4c0,0,0,0,0.1,0c5.6-0.1,10-4.6,10.2-10.1l0,0V92.3l0,0c-0.1-5.6-4.7-10.2-10.4-10.2c0,0,0,0,0,0
	l0,0h-51l0,0c-5.7,0-10.3,4.7-10.3,10.4c0,0.1,0,0.2,0,0.3c0,3.4,0,22.9,0,25.2C246.7,118.2,246.7,118.3,246.7,118.4 M390.3,82.1
	C390.3,82.1,390.2,82.1,390.3,82.1L390.3,82.1h-51l0,0c-5.7,0-10.3,4.7-10.3,10.4c0,0.1,0,0.2,0,0.3c0,3.4,0,22.9,0,25.2
	c0,0.1,0,0.2,0,0.3c0,5.6,4.5,10.2,10.1,10.4l0,0h51.4c0,0,0,0,0.1,0c5.6-0.1,10-4.6,10.2-10.1l0,0V92.3l0,0
	C400.5,86.7,395.9,82.1,390.3,82.1 M164.5,61.2c0,5.6,4.5,10.2,10.1,10.4l0,0H226c0,0,0,0,0.1,0c5.5-0.1,10-4.6,10.2-10.1l0,0V35.2
	l0,0c-0.1-5.6-4.7-10.2-10.4-10.2c0,0,0,0,0,0l0,0h-51l0,0c-5.7,0-10.3,4.7-10.3,10.4c0,0.1,0,0.2,0,0.3c0,3.4,0,22.9,0,25.2
	C164.5,61,164.5,61.1,164.5,61.2 M246.7,61.2c0,5.6,4.5,10.2,10.1,10.4l0,0h51.4c0,0,0,0,0.1,0c5.6-0.1,10-4.6,10.2-10.1l0,0V35.2
	l0,0C318.3,29.5,313.7,25,308,25c0,0,0,0,0,0l0,0h-51l0,0c-5.7,0-10.3,4.7-10.3,10.4c0,0.1,0,0.2,0,0.3c0,3.4,0,22.9,0,25.2
	C246.7,61,246.7,61.1,246.7,61.2 M390.3,25C390.3,25,390.2,25,390.3,25L390.3,25h-51l0,0c-5.7,0-10.3,4.7-10.3,10.4
	c0,0.1,0,0.2,0,0.3c0,3.4,0,22.9,0,25.2c0,0.1,0,0.2,0,0.3c0,5.6,4.5,10.2,10.1,10.4l0,0h51.4c0,0,0,0,0.1,0
	c5.6-0.1,10-4.6,10.2-10.1l0,0V35.2l0,0C400.5,29.5,395.9,25,390.3,25 M0,61.2c0,5.6,4.5,10.2,10.1,10.4l0,0h51.4c0,0,0,0,0.1,0
	c5.5-0.1,10-4.6,10.2-10.1l0,0V35.2l0,0C71.6,29.5,67,25,61.4,25c0,0,0,0,0,0l0,0h-51l0,0C4.6,25,0,29.6,0,35.4c0,0.1,0,0.2,0,0.3
	c0,3.4,0,22.9,0,25.2C0,61,0,61.1,0,61.2"/>
</svg>
