<?xml version="1.0" encoding="UTF-8" standalone="no"?>
<!-- Created with Inkscape (http://www.inkscape.org/) -->

<svg
   width="1024"
   height="512"
   viewBox="0 0 1024 512"
   version="1.1"
   id="svg1"
   xml:space="preserve"
   inkscape:version="1.4.3 (0d15f75042, 2025-12-25)"
   sodipodi:docname="msi-logo.svg"
   xmlns:inkscape="http://www.inkscape.org/namespaces/inkscape"
   xmlns:sodipodi="http://sodipodi.sourceforge.net/DTD/sodipodi-0.dtd"
   xmlns="http://www.w3.org/2000/svg"
   xmlns:svg="http://www.w3.org/2000/svg"><sodipodi:namedview
     id="namedview1"
     pagecolor="#ffffff"
     bordercolor="#000000"
     borderopacity="0.25"
     inkscape:showpageshadow="2"
     inkscape:pageopacity="0.0"
     inkscape:pagecheckerboard="0"
     inkscape:deskcolor="#d1d1d1"
     inkscape:document-units="px"
     inkscape:zoom="1.0993301"
     inkscape:cx="500.75952"
     inkscape:cy="264.70667"
     inkscape:window-width="1920"
     inkscape:window-height="999"
     inkscape:window-x="0"
     inkscape:window-y="0"
     inkscape:window-maximized="1"
     inkscape:current-layer="layer1" /><defs
     id="defs1" /><g
     inkscape:label="Layer 1"
     inkscape:groupmode="layer"
     id="layer1"><path
       style="fill:#d9010a;fill-opacity:1;stroke-width:2.35254"
       d="m 460.47478,464.68322 c -66.47316,-4.34959 -132.29968,-13.65347 -169.13106,-23.90484 -7.53036,-2.09595 -20.94007,-5.79131 -29.7993,-8.21189 C 183.77378,411.3173 117.85888,376.4685 81.864397,337.57077 55.156036,308.7082 44.895587,286.13172 44.895587,256.2268 c 0,-32.84803 12.583109,-57.66461 45.384673,-89.50837 C 135.09598,123.21135 208.54117,90.140494 313.08912,66.392154 414.38926,43.381567 561.06337,40.371112 672.29128,59.01958 823.28484,84.335179 935.911,142.19098 969.4124,211.65005 c 8.1481,16.89364 9.64343,23.82072 9.69159,44.89629 0.0659,28.86505 -7.65316,47.59371 -30.90308,74.97922 -36.78468,43.32775 -102.20961,78.27898 -193.76025,103.51033 -50.59149,13.943 -83.2606,19.75838 -149.80178,26.66595 -22.73436,2.36 -122.21813,4.41738 -144.1641,2.98138 z M 573.2288,436.60411 C 759.22451,426.38003 915.31109,362.21589 947.57177,282.71898 972.83772,220.45859 902.84998,150.90218 774.57531,110.78875 755.27328,104.7527 709.21874,92.893248 698.06365,91.086319 694.51994,90.512281 684.37208,88.708593 675.51285,87.078084 627.49421,78.240493 575.37094,74.155829 512.01946,74.265833 c -26.13476,0.0454 -49.69231,0.338542 -52.35007,0.651529 -2.65776,0.312951 -13.16808,1.032507 -23.3562,1.598967 -21.4851,1.194574 -66.60316,6.511892 -82.95476,9.776496 -6.20148,1.238145 -15.98691,3.055636 -21.74542,4.038899 -15.98479,2.729358 -55.01543,12.370236 -75.7063,18.700036 -97.60025,29.85811 -163.92385,75.83048 -180.597006,125.18119 -5.388292,15.94867 -3.953462,36.78752 3.624273,52.63723 10.203369,21.34156 24.117233,36.8932 52.137923,58.27485 39.7455,30.32852 122.50144,62.26369 197.31956,76.14482 7.53038,1.39712 17.31581,3.22115 21.74541,4.0534 9.58091,1.80012 37.47912,5.65132 58.79318,8.11609 38.71064,4.47654 114.03879,5.92753 164.29875,3.16477 z m 11.00296,-99.87603 c -17.96658,-3.03184 -38.60431,-11.33815 -47.82255,-19.24769 -3.79881,-3.25952 -3.79881,-3.25952 6.09433,-19.97515 l 9.89315,-16.71561 12.42952,6.2928 c 28.46044,14.40893 73.01314,14.91478 70.89091,0.80489 -0.93145,-6.19298 -8.46596,-9.48352 -32.20696,-14.06572 -34.5615,-6.67063 -47.27111,-12.16951 -56.00975,-24.23282 -13.74256,-18.97107 -9.69919,-47.32464 8.73686,-61.26618 26.09998,-19.73713 83.41347,-18.665 115.21678,2.15524 4.44715,2.91135 8.0857,5.82357 8.0857,6.47158 0,0.64806 -4.74551,8.42101 -10.54559,17.27327 l -10.54561,16.09505 -8.56367,-5.4781 c -12.78204,-8.17658 -26.023,-12.1037 -40.80987,-12.1037 -18.07571,0 -25.37381,6.41697 -17.58998,15.4662 2.97606,3.45983 7.06155,4.76417 27.65217,8.82824 13.2881,2.62272 27.78444,5.95294 32.21406,7.40047 21.9458,7.17157 33.02082,21.53369 33.02082,42.82152 0,24.54662 -16.17469,41.73523 -45.90702,48.78471 -10.37023,2.45877 -41.4138,2.8543 -54.2333,0.691 z m -304.92111,-5.15596 c -0.46203,-2.01628 -0.5964,-26.49868 -0.29864,-54.40529 0.56324,-52.78753 1.03589,-56.81749 8.31467,-70.89314 17.87629,-34.56895 74.05977,-42.90225 101.85463,-15.10739 l 8.53961,8.53961 6.81263,-7.42469 c 20.99982,-22.88639 65.36332,-23.65208 90.73276,-1.566 9.76758,8.50346 18.05032,25.39075 20.02407,40.82617 1.66062,12.98687 2.0688,97.19517 0.49104,101.30677 -0.71498,1.8632 -5.65011,2.30646 -25.67972,2.30646 H 465.30709 V 285.0373 c 0,-48.30656 -0.12522,-50.34005 -3.46501,-56.28243 -7.38103,-13.13278 -27.26156,-13.55077 -35.17929,-0.73964 -3.06199,4.95443 -3.23579,7.97223 -3.23579,56.18749 v 50.9519 h -25.77233 -25.77236 l -0.007,-51.14201 c -0.007,-58.71591 -0.0467,-58.905 -13.41728,-64.01134 -8.89154,-3.39571 -15.85352,-1.64839 -22.95607,5.76153 -4.69531,4.8985 -4.69531,4.8985 -5.50071,56.74245 l -0.80538,51.84399 -24.52313,0.44441 c -24.35897,0.44146 -24.52871,0.41991 -25.36308,-3.22153 z m 429.223,-75.34532 v -78.92785 h 24.96697 24.96697 v 78.92785 78.92782 h -24.96697 -24.96697 z"
       id="path1" /></g></svg>
